<svg width="14" height="10" viewBox="0 0 14 10" fill="none" xmlns="http://www.w3.org/2000/svg">
<path d="M2.8125 9V1.81641H0.28125V0.544922H6.84375V1.81641H4.31836V9H2.8125ZM8.83594 9.12305C7.20703 9.12305 6.27539 8.34961 6.14648 7.19531L6.14062 7.14258H7.57617L7.58789 7.19531C7.69922 7.72852 8.10352 8.04492 8.8418 8.04492C9.55078 8.04492 9.97852 7.75781 9.97852 7.30078V7.29492C9.97852 6.91992 9.76172 6.70898 9.11719 6.5625L8.08594 6.33398C6.89648 6.07031 6.29883 5.49023 6.29883 4.57031V4.56445C6.29883 3.42773 7.28906 2.66016 8.78906 2.66016C10.3359 2.66016 11.2383 3.50977 11.291 4.58203L11.2969 4.64648H9.9375L9.93164 4.59961C9.86719 4.10156 9.46875 3.73828 8.78906 3.73828C8.14453 3.73828 7.74023 4.03711 7.74023 4.49414V4.5C7.74023 4.85742 7.98047 5.0918 8.625 5.23828L9.66211 5.4668C10.9453 5.75391 11.4434 6.25781 11.4434 7.16016V7.16602C11.4434 8.33789 10.3594 9.12305 8.83594 9.12305ZM13.166 9.09375C12.6914 9.09375 12.3164 8.71875 12.3164 8.24414C12.3164 7.77539 12.6914 7.40039 13.166 7.40039C13.6406 7.40039 14.0098 7.77539 14.0098 8.24414C14.0098 8.71875 13.6406 9.09375 13.166 9.09375Z" fill="#22C55E"/>
</svg>
